PathFileType	4	(X/Y/Z)	 0.16m3min.trc
DataRate	CameraRate	NumFrames	NumMarkers	Units	OrigDataRate	OrigDataStartFrame	OrigNumFrames
200	200	11	35	m	200	626	1000
Frame#	Time	C7			LSH			RSH			MAN			RASI			LASI			HIPR			HIPL			RPSI			LPSI			COX			RTHI1			RTHI2			RTHI3			RTHI4			RSHA1			RSHA2			RSHA3			RSHA4			RHEEL			RMET5			RMET1			RTOE			LTHI1			LTHI2			LTHI3			LTHI4			LSHA1			LSHA2			LSHA3			LSHA4			LHEEL			LMET5			LMET1			LTOE			
		X1	Y1	Z1	X2	Y2	Z2	X3	Y3	Z3	X4	Y4	Z4	X5	Y5	Z5	X6	Y6	Z6	X7	Y7	Z7	X8	Y8	Z8	X9	Y9	Z9	X10	Y10	Z10	X11	Y11	Z11	X12	Y12	Z12	X13	Y13	Z13	X14	Y14	Z14	X15	Y15	Z15	X16	Y16	Z16	X17	Y17	Z17	X18	Y18	Z18	X19	Y19	Z19	X20	Y20	Z20	X21	Y21	Z21	X22	Y22	Z22	X23	Y23	Z23	X24	Y24	Z24	X25	Y25	Z25	X26	Y26	Z26	X27	Y27	Z27	X28	Y28	Z28	X29	Y29	Z29	X30	Y30	Z30	X31	Y31	Z31	X32	Y32	Z32	X33	Y33	Z33	X34	Y34	Z34	X35	Y35	Z35	
626	3.1300	-0.000000	0.000000	-0.000000	-0.255346	1.374969	-0.692755	-0.289935	1.347136	-0.358343	-0.200046	1.328833	-0.520743	-0.203001	0.929382	-0.417933	-0.192819	0.937520	-0.644253	-0.254118	0.977422	-0.391994	-0.243661	0.983460	-0.673252	-0.358737	0.964306	-0.478029	-0.353154	0.969370	-0.593106	-0.361466	0.969350	-0.535151	-0.272174	0.710447	-0.378301	-0.239196	0.660609	-0.375030	-0.183925	0.692401	-0.365767	-0.209828	0.748319	-0.366918	-0.252362	0.325694	-0.378092	-0.271627	0.288252	-0.389235	-0.215338	0.268948	-0.397540	-0.200362	0.305947	-0.391713	-0.378948	0.106404	-0.439824	-0.235198	0.030033	-0.392444	-0.213142	0.037502	-0.462560	-0.185700	0.027834	-0.458706	-0.248033	0.740093	-0.712584	-0.219469	0.685325	-0.710358	-0.160257	0.710521	-0.699444	-0.181440	0.766374	-0.700951	-0.250457	0.334101	-0.707394	-0.271912	0.299961	-0.705858	-0.216002	0.273764	-0.693947	-0.201138	0.315275	-0.697732	-0.389074	0.096257	-0.660326	-0.244885	0.031729	-0.698987	-0.213702	0.036983	-0.628210	-0.189793	0.027957	-0.629157	
627	3.1350	-0.000000	0.000000	-0.000000	-0.255581	1.366479	-0.693389	-0.289808	1.338342	-0.358160	-0.199735	1.320485	-0.520868	-0.203062	0.921070	-0.417755	-0.193195	0.929330	-0.644751	-0.254309	0.968343	-0.391598	-0.244325	0.974362	-0.673637	-0.359694	0.954631	-0.477684	-0.354172	0.959691	-0.592945	-0.362424	0.959833	-0.534879	-0.270582	0.702182	-0.377940	-0.237293	0.652550	-0.374693	-0.182229	0.684669	-0.365385	-0.208470	0.740448	-0.366518	-0.250548	0.320415	-0.377896	-0.270442	0.283291	-0.388906	-0.214401	0.263225	-0.397650	-0.198879	0.299979	-0.391787	-0.381047	0.102246	-0.439899	-0.235817	0.029505	-0.391795	-0.213479	0.037531	-0.462327	-0.185553	0.027822	-0.458701	-0.246424	0.730840	-0.712516	-0.217291	0.676377	-0.710321	-0.158332	0.702195	-0.699451	-0.180108	0.757823	-0.700925	-0.247426	0.328580	-0.707252	-0.269407	0.294757	-0.705877	-0.214037	0.267759	-0.693221	-0.198517	0.309054	-0.696919	-0.391041	0.092490	-0.660163	-0.245488	0.031232	-0.699256	-0.213939	0.036947	-0.628241	-0.189747	0.027905	-0.629073	
628	3.1400	-0.000000	0.000000	-0.000000	-0.255819	1.358182	-0.694077	-0.289692	1.329694	-0.357920	-0.199429	1.312291	-0.521004	-0.203170	0.912856	-0.417520	-0.193695	0.921162	-0.645382	-0.254656	0.959243	-0.391238	-0.245101	0.965243	-0.674062	-0.360759	0.944931	-0.477444	-0.355285	0.949978	-0.592826	-0.363467	0.950372	-0.534646	-0.269186	0.694305	-0.377575	-0.235596	0.644876	-0.374371	-0.180746	0.677300	-0.364936	-0.207306	0.732937	-0.366016	-0.248677	0.315242	-0.377671	-0.269129	0.278428	-0.388614	-0.213306	0.257693	-0.397755	-0.197306	0.294222	-0.391824	-0.382859	0.098342	-0.440079	-0.236350	0.029031	-0.391208	-0.213743	0.037561	-0.462115	-0.185395	0.027819	-0.458688	-0.244925	0.721645	-0.712460	-0.215252	0.667471	-0.710229	-0.156522	0.693902	-0.699580	-0.178863	0.749307	-0.701086	-0.244212	0.323241	-0.706897	-0.266645	0.289711	-0.705636	-0.211782	0.262050	-0.692245	-0.195682	0.303135	-0.695896	-0.392686	0.089048	-0.659629	-0.245983	0.030830	-0.699419	-0.214051	0.036900	-0.628247	-0.189610	0.027857	-0.628993	
629	3.1450	-0.000000	0.000000	-0.000000	-0.256071	1.350163	-0.694770	-0.289606	1.321254	-0.357624	-0.199159	1.304299	-0.521154	-0.203322	0.904817	-0.417220	-0.194314	0.913062	-0.646152	-0.255192	0.950181	-0.390922	-0.246020	0.956157	-0.674520	-0.361868	0.935359	-0.477362	-0.356439	0.940348	-0.592721	-0.364505	0.941129	-0.534463	-0.268025	0.686922	-0.377291	-0.234148	0.637699	-0.374106	-0.179529	0.670414	-0.364424	-0.206404	0.725892	-0.365452	-0.246811	0.310226	-0.377441	-0.267750	0.273699	-0.388404	-0.212138	0.252382	-0.397892	-0.195717	0.288683	-0.391834	-0.384431	0.094714	-0.440459	-0.236834	0.028622	-0.390712	-0.213954	0.037596	-0.461945	-0.185240	0.027824	-0.458672	-0.243584	0.712698	-0.712387	-0.213427	0.658789	-0.710064	-0.154886	0.685774	-0.699778	-0.177731	0.740986	-0.701390	-0.240942	0.318142	-0.706321	-0.263795	0.284910	-0.705118	-0.209420	0.256662	-0.691035	-0.192779	0.297531	-0.694699	-0.394046	0.085958	-0.658707	-0.246418	0.030515	-0.699436	-0.214070	0.036856	-0.628216	-0.189399	0.027820	-0.628928	
630	3.1500	-0.000000	0.000000	-0.000000	-0.256345	1.342504	-0.695412	-0.289542	1.313108	-0.357293	-0.198911	1.296566	-0.521322	-0.203514	0.897043	-0.416853	-0.195028	0.905094	-0.647064	-0.255959	0.941247	-0.390656	-0.247107	0.947179	-0.674990	-0.362946	0.926131	-0.477468	-0.357561	0.930975	-0.592601	-0.365451	0.932294	-0.534357	-0.267123	0.680085	-0.377128	-0.232967	0.631076	-0.373916	-0.178602	0.664081	-0.363863	-0.205784	0.719390	-0.364878	-0.245015	0.305407	-0.377238	-0.266373	0.269174	-0.388289	-0.210965	0.247315	-0.398073	-0.194171	0.283416	-0.391856	-0.385802	0.091353	-0.441092	-0.237289	0.028283	-0.390317	-0.214121	0.037625	-0.461809	-0.185089	0.027825	-0.458641	-0.242445	0.704231	-0.712260	-0.211890	0.650550	-0.709804	-0.153489	0.678003	-0.700013	-0.176750	0.733055	-0.701780	-0.237770	0.313348	-0.705540	-0.261037	0.280439	-0.704336	-0.207125	0.251628	-0.689648	-0.189955	0.292266	-0.693388	-0.395165	0.083223	-0.657438	-0.246844	0.030286	-0.699301	-0.214009	0.036814	-0.628141	-0.189128	0.027793	-0.628889	
631	3.1550	-0.000000	0.000000	-0.000000	-0.256636	1.335284	-0.695955	-0.289482	1.305344	-0.356960	-0.198688	1.289136	-0.521512	-0.203738	0.889635	-0.416425	-0.195789	0.897351	-0.648096	-0.256948	0.932572	-0.390464	-0.248382	0.938405	-0.675458	-0.363916	0.917518	-0.477755	-0.358572	0.922101	-0.592461	-0.366203	0.924093	-0.534329	-0.266463	0.673822	-0.377113	-0.232036	0.625014	-0.373804	-0.177944	0.658309	-0.363284	-0.205433	0.713446	-0.364328	-0.243349	0.300861	-0.377096	-0.265081	0.264913	-0.388281	-0.209867	0.242557	-0.398297	-0.192736	0.278452	-0.391891	-0.386973	0.088236	-0.441989	-0.237723	0.028010	-0.390032	-0.214236	0.037653	-0.461713	-0.184938	0.027827	-0.458603	-0.241550	0.696468	-0.712031	-0.210693	0.642949	-0.709438	-0.152373	0.670785	-0.700257	-0.175953	0.725716	-0.702201	-0.234832	0.308935	-0.704561	-0.258512	0.276359	-0.703287	-0.205033	0.246981	-0.688153	-0.187338	0.287373	-0.692023	-0.396102	0.080731	-0.655810	-0.247289	0.030130	-0.699023	-0.213878	0.036774	-0.628038	-0.188814	0.027775	-0.628895	
632	3.1600	-0.000000	0.000000	-0.000000	-0.256933	1.328572	-0.696375	-0.289408	1.298033	-0.356675	-0.198479	1.282090	-0.521721	-0.203976	0.882701	-0.415955	-0.196524	0.889961	-0.649205	-0.258138	0.924303	-0.390301	-0.249839	0.929969	-0.675907	-0.364699	0.909775	-0.478194	-0.359401	0.913990	-0.592296	-0.366683	0.916744	-0.534393	-0.266004	0.668104	-0.377230	-0.231312	0.619493	-0.373760	-0.177516	0.653074	-0.362693	-0.205311	0.708042	-0.363824	-0.241874	0.296648	-0.377043	-0.263932	0.260967	-0.388405	-0.208899	0.238153	-0.398548	-0.191459	0.273865	-0.391947	-0.387970	0.085358	-0.443145	-0.238146	0.027805	-0.389848	-0.214303	0.037671	-0.461652	-0.184783	0.027824	-0.458550	-0.240926	0.689575	-0.711658	-0.209849	0.636160	-0.708967	-0.151561	0.664288	-0.700486	-0.175369	0.719130	-0.702585	-0.232244	0.304947	-0.703398	-0.256332	0.272697	-0.702005	-0.203245	0.242743	-0.686620	-0.185038	0.282897	-0.690657	-0.396914	0.078357	-0.653830	-0.247768	0.030030	-0.698634	-0.213697	0.036734	-0.627918	-0.188478	0.027765	-0.628950	
633	3.1650	-0.000000	0.000000	-0.000000	-0.257215	1.322422	-0.696676	-0.289292	1.291245	-0.356453	-0.198261	1.275546	-0.521933	-0.204207	0.876343	-0.415473	-0.197157	0.883075	-0.650319	-0.259485	0.916632	-0.390171	-0.251450	0.922055	-0.676315	-0.365255	0.903088	-0.478706	-0.359992	0.906877	-0.592134	-0.366921	0.910368	-0.534558	-0.265715	0.662883	-0.377443	-0.230760	0.614473	-0.373758	-0.177278	0.648345	-0.362107	-0.205393	0.703152	-0.363367	-0.240647	0.292810	-0.377134	-0.262975	0.257371	-0.388683	-0.208088	0.234141	-0.398824	-0.190386	0.269689	-0.392015	-0.388805	0.082727	-0.444545	-0.238561	0.027666	-0.389763	-0.214326	0.037676	-0.461622	-0.184620	0.027818	-0.458485	-0.240579	0.683593	-0.711140	-0.209329	0.630268	-0.708433	-0.151044	0.658624	-0.700679	-0.175028	0.713393	-0.702893	-0.230107	0.301385	-0.702085	-0.254582	0.269441	-0.700539	-0.201822	0.238920	-0.685098	-0.183144	0.278846	-0.689317	-0.397665	0.076047	-0.651564	-0.248310	0.029963	-0.698157	-0.213495	0.036694	-0.627783	-0.188146	0.027764	-0.629054	
634	3.1700	-0.000000	0.000000	-0.000000	-0.257462	1.316879	-0.696887	-0.289117	1.285055	-0.356303	-0.198034	1.269565	-0.522139	-0.204408	0.870652	-0.415018	-0.197611	0.876859	-0.651348	-0.260892	0.909765	-0.390069	-0.253109	0.914909	-0.676666	-0.365584	0.897541	-0.479194	-0.360328	0.900916	-0.592043	-0.366954	0.904993	-0.534809	-0.265574	0.658126	-0.377709	-0.230352	0.609915	-0.373775	-0.177198	0.644087	-0.361534	-0.205631	0.698747	-0.362960	-0.239698	0.289381	-0.377380	-0.262232	0.254163	-0.389117	-0.207453	0.230553	-0.399104	-0.189534	0.265968	-0.392092	-0.389477	0.080344	-0.446134	-0.238974	0.027585	-0.389764	-0.214311	0.037674	-0.461613	-0.184447	0.027805	-0.458405	-0.240484	0.678449	-0.710538	-0.209066	0.625207	-0.707862	-0.150780	0.653779	-0.700836	-0.174938	0.708473	-0.703120	-0.228513	0.298228	-0.700667	-0.253323	0.266547	-0.698927	-0.200810	0.235497	-0.683633	-0.181725	0.275216	-0.688024	-0.398387	0.073750	-0.649090	-0.248930	0.029921	-0.697621	-0.213301	0.036654	-0.627633	-0.187848	0.027763	-0.629185	
635	3.1750	-0.000000	0.000000	-0.000000	-0.257660	1.311979	-0.697043	-0.288854	1.279533	-0.356239	-0.197788	1.264215	-0.522350	-0.204553	0.865695	-0.414632	-0.197825	0.871459	-0.652190	-0.262198	0.903903	-0.389996	-0.254657	0.908776	-0.676950	-0.365701	0.893085	-0.479600	-0.360426	0.896134	-0.592060	-0.366830	0.900578	-0.535107	-0.265556	0.653844	-0.378019	-0.230081	0.605814	-0.373805	-0.177258	0.640276	-0.360967	-0.205997	0.694804	-0.362618	-0.239028	0.286403	-0.377755	-0.261717	0.251344	-0.389690	-0.206998	0.227422	-0.399377	-0.188920	0.262717	-0.392165	-0.389994	0.078223	-0.447860	-0.239379	0.027555	-0.389837	-0.214260	0.037670	-0.461622	-0.184262	0.027792	-0.458316	-0.240599	0.674004	-0.709903	-0.208999	0.620851	-0.707284	-0.150726	0.649651	-0.700958	-0.175077	0.704256	-0.703283	-0.227496	0.295399	-0.699148	-0.252585	0.263944	-0.697195	-0.200236	0.232441	-0.682242	-0.180827	0.271980	-0.686797	-0.399106	0.071430	-0.646497	-0.249624	0.029898	-0.697053	-0.213148	0.036619	-0.627476	-0.187606	0.027760	-0.629333	
636	3.1800	-0.000000	0.000000	-0.000000	-0.257802	1.307761	-0.697178	-0.288513	1.274732	-0.356239	-0.197532	1.259566	-0.522565	-0.204617	0.861513	-0.414346	-0.197775	0.866978	-0.652766	-0.263255	0.899175	-0.389922	-0.255907	0.903869	-0.677163	-0.365651	0.889576	-0.479916	-0.360318	0.892439	-0.592181	-0.366604	0.897028	-0.535416	-0.265652	0.650061	-0.378358	-0.229958	0.602199	-0.373845	-0.177453	0.636910	-0.360405	-0.206465	0.691328	-0.362341	-0.238630	0.283886	-0.378241	-0.261415	0.248933	-0.390382	-0.206723	0.224761	-0.399626	-0.188533	0.259963	-0.392240	-0.390389	0.076359	-0.449672	-0.239777	0.027567	-0.389962	-0.214180	0.037664	-0.461642	-0.184067	0.027776	-0.458221	-0.240895	0.670145	-0.709286	-0.209103	0.617097	-0.706720	-0.150854	0.646118	-0.701048	-0.175410	0.700632	-0.703413	-0.227079	0.292835	-0.697577	-0.252388	0.261568	-0.695420	-0.200114	0.229696	-0.680931	-0.180481	0.269103	-0.685653	-0.399813	0.069089	-0.643912	-0.250357	0.029894	-0.696488	-0.213044	0.036589	-0.627316	-0.187420	0.027757	-0.629483	
